# Exported from Wings 3D 2.1.5
mtllib arrow.mtl
o Cylinder3
#32 vertices, 18 faces
v 8.8000000e-2 4.42854190 -2.2148949e-17
v 8.1301399e-2 4.42854190 3.3676142e-2
v 6.2225397e-2 4.42854190 6.2225397e-2
v 3.3676142e-2 4.42854190 8.1301399e-2
v -3.2581182e-17 4.42854190 8.8000000e-2
v -3.3676142e-2 4.42854190 8.1301399e-2
v -6.2225397e-2 4.42854190 6.2225397e-2
v -8.1301399e-2 4.42854190 3.3676142e-2
v -8.8000000e-2 4.42854190 -1.1372058e-17
v -8.1301399e-2 4.42854190 -3.3676142e-2
v -6.2225397e-2 4.42854190 -6.2225397e-2
v -3.3676142e-2 4.42854190 -8.1301399e-2
v -5.4134965e-17 4.42854190 -8.8000000e-2
v 3.3676142e-2 4.42854190 -8.1301399e-2
v 6.2225397e-2 4.42854190 -6.2225397e-2
v 8.1301399e-2 4.42854190 -3.3676142e-2
v 2.23400000 1.34552954 2.9969083e-17
v 2.06394688 1.34552954 0.85491479
v 1.57967655 1.34552954 1.57967655
v 0.85491479 1.34552954 2.06394688
v 1.8816862e-16 1.34552954 2.23400000
v -0.85491479 1.34552954 2.06394688
v -1.57967655 1.34552954 1.57967655
v -2.06394688 1.34552954 0.85491479
v -2.23400000 1.34552954 3.0355518e-16
v -2.06394688 1.34552954 -0.85491479
v -1.57967655 1.34552954 -1.57967655
v -0.85491479 1.34552954 -2.06394688
v -3.5900357e-16 1.34552954 -2.23400000
v 0.85491479 1.34552954 -2.06394688
v 1.57967655 1.34552954 -1.57967655
v 2.06394688 1.34552954 -0.85491479
vn 0.60579751 0.79561886 -1.0275128e-15
vn 0.55968392 0.79561886 0.23182867
vn 0.42836353 0.79561886 0.42836353
vn 0.23182867 0.79561886 0.55968392
vn -1.0378917e-17 0.79561886 0.60579751
vn -0.23182867 0.79561886 0.55968392
vn -0.42836353 0.79561886 0.42836353
vn -0.55968392 0.79561886 0.23182867
vn -0.60579751 0.79561886 -9.3410253e-16
vn -0.55968392 0.79561886 -0.23182867
vn -0.42836353 0.79561886 -0.42836353
vn -0.23182867 0.79561886 -0.55968392
vn 0.0000000e+0 0.79561886 -0.60579751
vn 0.23182867 0.79561886 -0.55968392
vn 0.42836353 0.79561886 -0.42836353
vn 0.55968392 0.79561886 -0.23182867
vn 0.99690938 7.8560125e-2 -1.7079700e-16
vn 0.92102417 7.8560125e-2 0.38150070
vn 0.70492138 7.8560125e-2 0.70492138
vn 0.38150070 7.8560125e-2 0.92102417
vn -1.7079700e-17 7.8560125e-2 0.99690938
vn -0.38150070 7.8560125e-2 0.92102417
vn -0.70492138 7.8560125e-2 0.70492138
vn -0.92102417 7.8560125e-2 0.38150070
vn -0.99690938 7.8560125e-2 -1.7079700e-17
vn -0.92102417 7.8560125e-2 -0.38150070
vn -0.70492138 7.8560125e-2 -0.70492138
vn -0.38150070 7.8560125e-2 -0.92102417
vn 0.0000000e+0 7.8560125e-2 -0.99690938
vn 0.38150070 7.8560125e-2 -0.92102417
vn 0.70492138 7.8560125e-2 -0.70492138
vn 0.92102417 7.8560125e-2 -0.38150070
g Cylinder3_default
usemtl default
s 1
f 1//1 16//16 15//15 14//14 13//13 12//12 11//11 10//10 9//9 8//8 7//7 6//6 5//5 4//4 3//3 2//2
f 1//1 17//17 32//32 16//16
f 2//2 18//18 17//17 1//1
f 3//3 19//19 18//18 2//2
f 4//4 20//20 19//19 3//3
f 5//5 21//21 20//20 4//4
f 6//6 22//22 21//21 5//5
f 7//7 23//23 22//22 6//6
f 8//8 24//24 23//23 7//7
f 9//9 25//25 24//24 8//8
f 10//10 26//26 25//25 9//9
f 11//11 27//27 26//26 10//10
f 12//12 28//28 27//27 11//11
f 13//13 29//29 28//28 12//12
f 14//14 30//30 29//29 13//13
f 15//15 31//31 30//30 14//14
f 16//16 32//32 31//31 15//15
f 18//18 19//19 20//20 21//21 22//22 23//23 24//24 25//25 26//26 27//27 28//28 29//29 30//30 31//31 32//32 17//17
o Cylinder1
#32 vertices, 18 faces
v 1.00000000 2.08713345 0.0000000e+0
v 0.92387953 2.08713345 0.38268343
v 0.70710678 2.08713345 0.70710678
v 0.38268343 2.08713345 0.92387953
v 6.1232340e-17 2.08713345 1.00000000
v -0.38268343 2.08713345 0.92387953
v -0.70710678 2.08713345 0.70710678
v -0.92387953 2.08713345 0.38268343
v -1.00000000 2.08713345 1.2246468e-16
v -0.92387953 2.08713345 -0.38268343
v -0.70710678 2.08713345 -0.70710678
v -0.38268343 2.08713345 -0.92387953
v -1.8369702e-16 2.08713345 -1.00000000
v 0.38268343 2.08713345 -0.92387953
v 0.70710678 2.08713345 -0.70710678
v 0.92387953 2.08713345 -0.38268343
v 1.00000000 -5.80886655 0.0000000e+0
v 0.92387953 -5.80886655 0.38268343
v 0.70710678 -5.80886655 0.70710678
v 0.38268343 -5.80886655 0.92387953
v 6.1232340e-17 -5.80886655 1.00000000
v -0.38268343 -5.80886655 0.92387953
v -0.70710678 -5.80886655 0.70710678
v -0.92387953 -5.80886655 0.38268343
v -1.00000000 -5.80886655 1.2246468e-16
v -0.92387953 -5.80886655 -0.38268343
v -0.70710678 -5.80886655 -0.70710678
v -0.38268343 -5.80886655 -0.92387953
v -1.8369702e-16 -5.80886655 -1.00000000
v 0.38268343 -5.80886655 -0.92387953
v 0.70710678 -5.80886655 -0.70710678
v 0.92387953 -5.80886655 -0.38268343
vn 0.89090915 0.45418155 -2.3951534e-16
vn 0.82309273 0.45418155 0.34093617
vn 0.62996790 0.45418155 0.62996790
vn 0.34093617 0.45418155 0.82309273
vn 0.0000000e+0 0.45418155 0.89090915
vn -0.34093617 0.45418155 0.82309273
vn -0.62996790 0.45418155 0.62996790
vn -0.82309273 0.45418155 0.34093617
vn -0.89090915 0.45418155 1.2606070e-17
vn -0.82309273 0.45418155 -0.34093617
vn -0.62996790 0.45418155 -0.62996790
vn -0.34093617 0.45418155 -0.82309273
vn -1.2606070e-16 0.45418155 -0.89090915
vn 0.34093617 0.45418155 -0.82309273
vn 0.62996790 0.45418155 -0.62996790
vn 0.82309273 0.45418155 -0.34093617
vn 0.89090915 -0.45418155 1.1345463e-16
vn 0.82309273 -0.45418155 0.34093617
vn 0.62996790 -0.45418155 0.62996790
vn 0.34093617 -0.45418155 0.82309273
vn 0.0000000e+0 -0.45418155 0.89090915
vn -0.34093617 -0.45418155 0.82309273
vn -0.62996790 -0.45418155 0.62996790
vn -0.82309273 -0.45418155 0.34093617
vn -0.89090915 -0.45418155 3.6557604e-16
vn -0.82309273 -0.45418155 -0.34093617
vn -0.62996790 -0.45418155 -0.62996790
vn -0.34093617 -0.45418155 -0.82309273
vn -1.2606070e-16 -0.45418155 -0.89090915
vn 0.34093617 -0.45418155 -0.82309273
vn 0.62996790 -0.45418155 -0.62996790
vn 0.82309273 -0.45418155 -0.34093617
g Cylinder1_default
usemtl default
s 1
f 33//33 48//48 47//47 46//46 45//45 44//44 43//43 42//42 41//41 40//40 39//39 38//38 37//37 36//36 35//35 34//34
f 33//33 49//49 64//64 48//48
f 34//34 50//50 49//49 33//33
f 35//35 51//51 50//50 34//34
f 36//36 52//52 51//51 35//35
f 37//37 53//53 52//52 36//36
f 38//38 54//54 53//53 37//37
f 39//39 55//55 54//54 38//38
f 40//40 56//56 55//55 39//39
f 41//41 57//57 56//56 40//40
f 42//42 58//58 57//57 41//41
f 43//43 59//59 58//58 42//42
f 44//44 60//60 59//59 43//43
f 45//45 61//61 60//60 44//44
f 46//46 62//62 61//61 45//45
f 47//47 63//63 62//62 46//46
f 48//48 64//64 63//63 47//47
f 50//50 51//51 52//52 53//53 54//54 55//55 56//56 57//57 58//58 59//59 60//60 61//61 62//62 63//63 64//64 49//49
